<svg width="20" height="20" viewBox="0 0 20 20" fill="none" xmlns="http://www.w3.org/2000/svg">
<path d="M19.0222 4.12222L15.8778 0.977778C15.2533 0.352478 14.406 0.000778009 13.5222 0H6.47778C5.59402 0.000778009 4.74674 0.352478 4.12222 0.977778L0.977778 4.12222C0.352478 4.74674 0.000778009 5.59402 0 6.47778V16.6667C0 17.5507 0.35119 18.3986 0.976311 19.0237C1.60143 19.6488 2.44928 20 3.33333 20H16.6667C17.5507 20 18.3986 19.6488 19.0237 19.0237C19.6488 18.3986 20 17.5507 20 16.6667V6.47778C19.9992 5.59402 19.6475 4.74674 19.0222 4.12222ZM5.68889 2.54444C5.90182 2.34141 6.18359 2.22632 6.47778 2.22222H13.5222C13.8164 2.22632 14.0982 2.34141 14.3111 2.54444L16.2111 4.44444H3.78889L5.68889 2.54444ZM16.6667 17.7778H3.33333C3.03865 17.7778 2.75603 17.6607 2.54766 17.4523C2.33929 17.244 2.22222 16.9614 2.22222 16.6667V6.66667H17.7778V16.6667C17.7778 16.9614 17.6607 17.244 17.4523 17.4523C17.244 17.6607 16.9614 17.7778 16.6667 17.7778Z" fill="white"/>
<path d="M13.3333 8.88889C13.0386 8.88889 12.756 9.00595 12.5476 9.21432C12.3393 9.4227 12.2222 9.70531 12.2222 10C12.2222 10.5894 11.9881 11.1546 11.5713 11.5713C11.1546 11.9881 10.5894 12.2222 9.99999 12.2222C9.41062 12.2222 8.84539 11.9881 8.42864 11.5713C8.01189 11.1546 7.77776 10.5894 7.77776 10C7.77776 9.70531 7.6607 9.4227 7.45233 9.21432C7.24395 9.00595 6.96134 8.88889 6.66665 8.88889C6.37197 8.88889 6.08935 9.00595 5.88098 9.21432C5.67261 9.4227 5.55554 9.70531 5.55554 10C5.55554 11.1787 6.02379 12.3092 6.85729 13.1427C7.69078 13.9762 8.82125 14.4444 9.99999 14.4444C11.1787 14.4444 12.3092 13.9762 13.1427 13.1427C13.9762 12.3092 14.4444 11.1787 14.4444 10C14.4444 9.70531 14.3274 9.4227 14.119 9.21432C13.9106 9.00595 13.628 8.88889 13.3333 8.88889Z" fill="white"/>
</svg>
