<svg width="35" height="50" viewBox="0 0 35 50" fill="none" xmlns="http://www.w3.org/2000/svg">
<path fill-rule="evenodd" clip-rule="evenodd" d="M27.5127 0.213868C27.8141 0.391166 28.0474 0.666936 28.1744 0.996129C28.3014 1.32532 28.3146 1.68848 28.2118 2.02627L22.665 20.3127H32.8994C33.2002 20.3126 33.4944 20.4018 33.7458 20.5694C33.9971 20.737 34.1946 20.9756 34.3138 21.2558C34.4331 21.5359 34.4688 21.8454 34.4167 22.1459C34.3646 22.4464 34.2268 22.7249 34.0205 22.947L9.38141 49.5079C9.14301 49.7652 8.82576 49.9329 8.48139 49.9837C8.13701 50.0346 7.78581 49.9656 7.48503 49.788C7.18425 49.6104 6.95163 49.3347 6.82508 49.0058C6.69852 48.6769 6.68551 48.3142 6.78815 47.9768L12.335 29.6872H2.10056C1.79979 29.6873 1.50557 29.5981 1.25422 29.4305C1.00287 29.2629 0.805392 29.0243 0.686164 28.7441C0.566935 28.464 0.531176 28.1545 0.5833 27.854C0.635425 27.5535 0.77315 27.275 0.979477 27.053L25.6186 0.491977C25.8567 0.235114 26.1735 0.0675285 26.5173 0.0164687C26.8612 -0.0345911 27.212 0.0338781 27.5127 0.210743V0.213868Z" fill="white"/>
</svg>
