<svg width="25" height="25" viewBox="0 0 25 25" fill="none" xmlns="http://www.w3.org/2000/svg">
<path d="M19.2231 11.7068H5.22314C4.11857 11.7068 3.22314 12.6022 3.22314 13.7068V20.7068C3.22314 21.8114 4.11857 22.7068 5.22314 22.7068H19.2231C20.3277 22.7068 21.2231 21.8114 21.2231 20.7068V13.7068C21.2231 12.6022 20.3277 11.7068 19.2231 11.7068Z" stroke="white" stroke-width="2" stroke-linecap="round" stroke-linejoin="round"/>
<path d="M7.22314 11.7068V7.70682C7.22314 6.38074 7.74993 5.10897 8.68761 4.17128C9.62529 3.2336 10.8971 2.70682 12.2231 2.70682C13.5492 2.70682 14.821 3.2336 15.7587 4.17128C16.6964 5.10897 17.2231 6.38074 17.2231 7.70682V11.7068" stroke="white" stroke-width="2" stroke-linecap="round" stroke-linejoin="round"/>
</svg>
