<svg width="23" height="23" viewBox="0 0 23 23" fill="none" xmlns="http://www.w3.org/2000/svg">
<path d="M11.2619 3.16251C11.0418 3.24337 10.9744 3.30626 10.8621 3.52188C10.6959 3.84532 10.8037 4.20919 11.1316 4.4293C11.2439 4.50567 11.3697 4.53262 11.7785 4.55958C13.5934 4.67188 15.0758 5.30977 16.3246 6.50919C17.3982 7.54688 18.09 8.86309 18.3551 10.377C18.4539 10.9475 18.4539 12.0525 18.3551 12.6231C18.09 14.1504 17.3848 15.4801 16.2932 16.5133C15.0398 17.7082 13.5844 18.3281 11.7785 18.4404C11.3697 18.4674 11.2484 18.4899 11.1316 18.5707C10.5746 18.9525 10.7273 19.7342 11.3922 19.8734C11.5898 19.9184 12.5646 19.8285 13.1351 19.7207C14.1863 19.5141 15.4621 18.9705 16.3516 18.3416C16.9041 17.9463 17.9463 16.9041 18.3416 16.3516C18.7324 15.799 19.2535 14.7568 19.4646 14.119C20.0172 12.4209 20.0172 10.5791 19.4646 8.88106C19.2535 8.24317 18.7324 7.20098 18.3416 6.64844C17.9463 6.09591 16.9041 5.05372 16.3516 4.65841C16.118 4.49219 15.6283 4.20919 15.2689 4.0295C14.2402 3.50841 13.2834 3.23887 12.1469 3.14454C11.4551 3.09063 11.473 3.09063 11.2619 3.16251Z" fill="white"/>
<path d="M10.2871 7.95566C10.1434 8.01406 9.98167 8.1668 9.90081 8.31953C9.82444 8.46328 9.81995 8.77324 9.88733 8.90801C9.91428 8.96191 10.3321 9.40664 10.8172 9.8918L11.7022 10.7812H7.68167H3.66116L3.48596 10.8846C2.99631 11.1586 3.00979 11.8773 3.50842 12.1289C3.67463 12.2143 3.79143 12.2187 7.69065 12.2187H11.7022L10.8172 13.1037C10.3321 13.5934 9.91428 14.0381 9.88733 14.092C9.86038 14.1459 9.83792 14.2807 9.83792 14.3885C9.83792 14.8961 10.4039 15.2465 10.8531 15.0129C10.952 14.959 11.6797 14.2672 12.5422 13.4002C13.8584 12.075 14.0606 11.8594 14.1055 11.6887C14.2133 11.2799 14.2088 11.2754 12.5422 9.5998C11.7112 8.76426 10.952 8.04101 10.8621 7.9916C10.6824 7.89726 10.4668 7.88379 10.2871 7.95566Z" fill="white"/>
</svg>
